<svg width="17" height="17" viewBox="0 0 17 17" fill="none" xmlns="http://www.w3.org/2000/svg">
<path d="M8.63354 16.9668C6.51188 16.9668 4.47686 16.1239 2.9767 14.6236C1.47645 13.1233 0.633545 11.0885 0.633545 8.9668C0.633545 6.84513 1.47645 4.81011 2.9767 3.30995C4.47708 1.8097 6.51188 0.966797 8.63354 0.966797C10.7552 0.966797 12.7902 1.8097 14.2904 3.30995C15.7906 4.81033 16.6335 6.84513 16.6335 8.9668C16.631 11.0877 15.7874 13.1213 14.2876 14.6208C12.7878 16.1206 10.7543 16.9642 8.63354 16.9668ZM11.7186 6.90921V6.90909C11.8589 6.77358 11.9389 6.58743 11.9406 6.39237C11.9423 6.19732 11.8656 6.00971 11.7277 5.87176C11.5897 5.7338 11.4021 5.65711 11.207 5.65881C11.012 5.66052 10.8258 5.74051 10.6903 5.88077L8.63355 7.93829L6.57677 5.88077C6.39207 5.7024 6.12701 5.63459 5.87924 5.70252C5.6316 5.77046 5.43814 5.96393 5.37019 6.21157C5.30226 6.45934 5.37007 6.72439 5.54844 6.9091L7.60522 8.96662L5.54844 11.0241C5.40818 11.1597 5.32819 11.3458 5.32649 11.5409C5.32478 11.7359 5.40148 11.9235 5.53943 12.0615C5.67738 12.1994 5.86499 12.2761 6.06005 12.2744C6.2551 12.2727 6.44124 12.1927 6.57676 12.0525L8.63354 9.99494L10.6903 12.0525C10.8258 12.1927 11.012 12.2727 11.207 12.2744C11.4021 12.2761 11.5897 12.1994 11.7276 12.0615C11.8656 11.9235 11.9423 11.7359 11.9406 11.5409C11.9389 11.3458 11.8589 11.1597 11.7186 11.0241L9.66186 8.96662L11.7186 6.90921Z" fill="#4A4754"/>
</svg>
