<svg width="17" height="17" viewBox="0 0 17 17" fill="none" xmlns="http://www.w3.org/2000/svg">
<circle cx="8.63354" cy="8.9668" r="8" fill="#252525"/>
<path d="M12.1105 6.11197H11.1109C11.0975 6.10733 11.0836 6.10432 11.0695 6.10294H10.0053V5.22027C10.0053 5.15394 9.97934 5.09026 9.93299 5.04288C9.88658 4.99551 9.8235 4.96818 9.75723 4.9668H7.24026C7.17302 4.9668 7.10856 4.99346 7.06106 5.04101C7.01351 5.08857 6.98679 5.15303 6.98679 5.22027V6.10294H5.92793C5.91384 6.10432 5.89994 6.10733 5.88658 6.11197H4.88702C4.79643 6.11197 4.71275 6.16024 4.66749 6.23867C4.62223 6.31711 4.62223 6.41371 4.66749 6.49214C4.71276 6.57057 4.79643 6.61891 4.88702 6.61891H5.70137L6.3594 12.7403C6.36644 12.8026 6.39618 12.8601 6.44295 12.9019C6.48966 12.9437 6.55015 12.9667 6.61287 12.9668H10.3882C10.4502 12.9659 10.5098 12.9424 10.5559 12.9007C10.6019 12.859 10.6311 12.802 10.638 12.7403L11.296 6.62784H12.1104C12.201 6.62784 12.2847 6.57957 12.3299 6.50114C12.3752 6.42271 12.3752 6.32604 12.3299 6.24767C12.2847 6.16924 12.201 6.1209 12.1104 6.1209L12.1105 6.11197ZM7.4992 5.47374H9.49826V6.10294H7.4992V5.47374ZM10.1581 12.4562H6.83937L6.21017 6.62791H10.7872L10.1581 12.4562Z" fill="white"/>
<path d="M8.49883 11.8635C8.56607 11.8635 8.63053 11.8367 8.67809 11.7893C8.72564 11.7417 8.75231 11.6772 8.75231 11.61V7.4752C8.75231 7.38461 8.70403 7.30093 8.6256 7.25567C8.54717 7.21035 8.4505 7.21035 8.37207 7.25567C8.29364 7.30094 8.24536 7.38461 8.24536 7.4752V11.61C8.24536 11.6772 8.27203 11.7417 8.31958 11.7893C8.36713 11.8367 8.4316 11.8635 8.49884 11.8635H8.49883Z" fill="white"/>
<path d="M7.50106 11.8612H7.51184C7.57877 11.8585 7.64186 11.8293 7.68737 11.7801C7.73281 11.7309 7.75701 11.6657 7.75454 11.5988L7.60171 7.46398L7.60177 7.46392C7.60039 7.39621 7.57144 7.33192 7.52154 7.28605C7.47158 7.24025 7.40512 7.21683 7.33747 7.22123C7.27054 7.22406 7.20745 7.25325 7.162 7.30243C7.1165 7.3516 7.09236 7.41679 7.09477 7.48373L7.2476 11.6185C7.25079 11.6837 7.27884 11.7452 7.32603 11.7904C7.37316 11.8355 7.43582 11.8609 7.50107 11.8612L7.50106 11.8612Z" fill="white"/>
<path d="M9.48739 11.8609H9.49635C9.56317 11.8624 9.62788 11.8376 9.67663 11.7919C9.72533 11.7462 9.75422 11.6831 9.75705 11.6164L9.90988 7.48157H9.90982C9.91229 7.41463 9.88809 7.34944 9.84264 7.30026C9.79714 7.25108 9.73405 7.22189 9.66711 7.21906C9.59867 7.21202 9.53042 7.23411 9.47907 7.27997C9.42773 7.32578 9.39811 7.39115 9.39745 7.46002L9.24282 11.5948H9.24288C9.23945 11.6627 9.2634 11.7291 9.30939 11.7791C9.35532 11.8291 9.41948 11.8586 9.48738 11.8609L9.48739 11.8609Z" fill="white"/>
</svg>
