<svg width="62" height="54" viewBox="0 0 62 54" fill="none" xmlns="http://www.w3.org/2000/svg">
<path d="M31.8922 12.6412C31.7659 13.0642 32.0072 13.5083 32.43 13.6343L32.5221 13.6617L32.5265 13.6566C32.92 13.7231 33.3084 13.4866 33.4241 13.0965C34.4616 9.61538 37.7304 7.18317 41.3724 7.18317C41.8136 7.18317 42.1718 6.82581 42.1718 6.38475C42.1718 5.94368 41.8136 5.58633 41.3724 5.58633C36.8799 5.58633 33.1045 8.57326 31.8922 12.6412ZM31.8922 12.6412L32.0359 12.6841M31.8922 12.6412C31.8922 12.6413 31.8922 12.6413 31.8922 12.6413L32.0359 12.6841M32.0359 12.6841C31.9334 13.0274 32.1291 13.3881 32.4728 13.4905L32.0359 12.6841Z" fill="#9750EF" stroke="#9750EF" stroke-width="0.3"/>
<path d="M50.4626 38.1571H46.5666C46.2081 38.1571 45.9173 37.8667 45.9173 37.5087C45.9173 37.1507 46.2081 36.8603 46.5666 36.8603H50.4626C55.833 36.8603 60.2026 32.4969 60.2026 27.134C60.2026 21.7712 55.833 17.4078 50.4626 17.4078H50.3689C50.1806 17.4078 50.0015 17.3263 49.8782 17.1841C49.7548 17.0419 49.6991 16.8534 49.726 16.6672C49.784 16.2634 49.8132 15.8577 49.8132 15.4626C49.8132 10.8149 46.0262 7.03316 41.3719 7.03316C39.5611 7.03316 37.8344 7.59821 36.378 8.66762C36.0579 8.90244 35.6034 8.79823 35.4184 8.44669C31.2937 0.603683 20.5206 -0.449553 14.9353 6.37318C12.5824 9.24749 11.658 12.9865 12.3988 16.6307C12.4804 17.0332 12.172 17.4083 11.7624 17.4083H11.5022C6.13181 17.4083 1.76223 21.7717 1.76223 27.1345C1.76223 32.4974 6.13181 36.8608 11.5022 36.8608H15.3982C15.7567 36.8608 16.0475 37.1512 16.0475 37.5092C16.0475 37.8672 15.7567 38.1576 15.3982 38.1576H11.5022C5.4156 38.1576 0.463501 33.2125 0.463501 27.1345C0.463501 21.227 5.14144 16.3898 10.9925 16.123C10.4429 12.3423 11.4939 8.52864 13.9298 5.55248C19.9096 -1.75282 31.3696 -0.933996 36.214 7.21195C37.7595 6.24442 39.5279 5.73685 41.3716 5.73685C47.0106 5.73685 51.479 10.5296 51.088 16.1291C56.8851 16.4537 61.501 21.2654 61.501 27.134C61.501 33.2125 56.5489 38.1571 50.4623 38.1571L50.4626 38.1571Z" fill="#9750EF"/>
<path d="M14.5117 37.1427C14.5117 46.1643 21.8615 53.5032 30.8953 53.5032C39.9291 53.5032 47.2788 46.1642 47.2788 37.1427C47.2788 28.1211 39.9291 20.7821 30.8953 20.7821C21.8614 20.7821 14.5117 28.1212 14.5117 37.1427ZM16.1107 37.1427C16.1107 29.0026 22.743 22.3793 30.8953 22.3793C39.0474 22.3793 45.6798 29.0025 45.6798 37.1427C45.6798 45.2828 39.0474 51.9061 30.8953 51.9061C22.7431 51.9061 16.1107 45.2829 16.1107 37.1427Z" fill="#9750EF" stroke="#9750EF" stroke-width="0.3"/>
<path d="M30.5667 43.6684C30.5667 44.0136 30.8469 44.2932 31.1921 44.2932C31.5371 44.2932 31.8174 44.014 31.8174 43.6684V31.3258C31.8174 30.9806 31.5372 30.7011 31.1921 30.7011C30.8469 30.7011 30.5667 30.9806 30.5667 31.3258V43.6684Z" fill="#9750EF" stroke="#9750EF" stroke-width="0.3"/>
<path d="M30.7498 30.885C30.9939 30.641 31.3899 30.6411 31.6341 30.885L35.4372 34.6827C35.6815 34.9267 35.6816 35.3221 35.4373 35.5662C35.3151 35.6887 35.1544 35.7492 34.9951 35.7492L30.7498 30.885ZM30.7498 30.885C30.7498 30.885 30.7497 30.8851 30.7497 30.8851L30.7498 30.885ZM34.5529 35.5663C34.6749 35.6881 34.8354 35.7492 34.995 35.7492L27.8311 35.5663L27.8312 35.5662L31.192 32.2102L34.5529 35.5663Z" fill="#9750EF" stroke="#9750EF" stroke-width="0.3"/>
</svg>
