<svg width="30" height="22" viewBox="0 0 30 22" fill="none" xmlns="http://www.w3.org/2000/svg">
<path d="M22.1938 16.5063H25.1938V13.5063M22.1938 4.50629H25.1938V7.50629M8.19385 4.50629H5.19385V7.50629M5.19385 13.5063V16.5063H8.19385M15.1938 14.5063C12.9847 14.5063 11.1938 12.7154 11.1938 10.5063C11.1938 8.29715 12.9847 6.50629 15.1938 6.50629C17.403 6.50629 19.1938 8.29715 19.1938 10.5063C19.1938 12.7154 17.403 14.5063 15.1938 14.5063ZM3.19385 0.506287H27.1938C28.2984 0.506287 29.1938 1.40172 29.1938 2.50629V18.5063C29.1938 19.6109 28.2984 20.5063 27.1938 20.5063H3.19385C2.08928 20.5063 1.19385 19.6109 1.19385 18.5063V2.50629C1.19385 1.40172 2.08928 0.506287 3.19385 0.506287Z" stroke="white" stroke-opacity="0.8"/>
</svg>
