<svg width="31" height="31" viewBox="0 0 31 31" fill="none" xmlns="http://www.w3.org/2000/svg">
<path d="M1.4375 19.9966L1.08395 19.643L0.9375 19.7895V19.9966H1.4375ZM19.4375 1.99658L19.7911 1.64303C19.5958 1.44777 19.2792 1.44777 19.0839 1.64303L19.4375 1.99658ZM29.4375 11.9966L29.7911 12.3501C29.9863 12.1549 29.9863 11.8383 29.7911 11.643L29.4375 11.9966ZM11.4375 29.9966V30.4966H11.6446L11.7911 30.3501L11.4375 29.9966ZM1.4375 29.9966H0.9375C0.9375 30.2727 1.16136 30.4966 1.4375 30.4966V29.9966ZM1.79105 20.3501L19.7911 2.35014L19.0839 1.64303L1.08395 19.643L1.79105 20.3501ZM19.0839 2.35014L29.0839 12.3501L29.7911 11.643L19.7911 1.64303L19.0839 2.35014ZM29.0839 11.643L11.0839 29.643L11.7911 30.3501L29.7911 12.3501L29.0839 11.643ZM11.4375 29.4966H1.4375V30.4966H11.4375V29.4966ZM1.9375 29.9966V19.9966H0.9375V29.9966H1.9375ZM13.0839 8.35014L23.0839 18.3501L23.7911 17.643L13.7911 7.64303L13.0839 8.35014ZM16.4375 30.4966H30.4375V29.4966H16.4375V30.4966Z" fill="white" fill-opacity="0.8"/>
</svg>
