<svg width="75" height="74" viewBox="0 0 75 74" fill="none" xmlns="http://www.w3.org/2000/svg">
<g clip-path="url(#clip0_195_21111)">
<path d="M55.2763 33.1458C54.6466 33.1458 54.0427 32.8956 53.5975 32.4504C53.1523 32.0051 52.9021 31.4013 52.9021 30.7716C52.4719 28.6456 51.4077 26.6999 49.8496 25.1908C48.4466 23.431 46.4099 22.2909 44.1763 22.0149C43.5466 22.0149 42.9427 21.7648 42.4975 21.3196C42.0523 20.8743 41.8021 20.2704 41.8021 19.6408C41.8021 19.0111 42.0523 18.4072 42.4975 17.962C42.9427 17.5167 43.5466 17.2666 44.1763 17.2666C45.9376 17.3858 47.6567 17.8597 49.2303 18.6597C50.8039 19.4598 52.1997 20.5696 53.3338 21.9224C55.7623 24.2684 57.2992 27.3859 57.6813 30.7408C57.6805 31.3784 57.4268 31.9896 56.976 32.4405C56.5251 32.8913 55.9139 33.145 55.2763 33.1458Z" fill="white"/>
<path d="M66.4072 33.1457C65.7775 33.1457 65.1736 32.8955 64.7284 32.4503C64.2831 32.0051 64.033 31.4012 64.033 30.7715C64.0265 25.5154 61.9356 20.4764 58.2189 16.7597C54.5023 13.0431 49.4633 10.9522 44.2072 10.9457C43.8934 10.9477 43.5822 10.8879 43.2915 10.7697C43.0009 10.6515 42.7363 10.4771 42.513 10.2567C42.0619 9.81144 41.8063 9.20526 41.8022 8.5715C41.7981 7.93775 42.0459 7.32832 42.4912 6.8773C42.9364 6.42627 43.5426 6.17059 44.1763 6.1665C50.6997 6.17385 56.9538 8.76851 61.5666 13.3813C66.1793 17.994 68.774 24.2481 68.7813 30.7715C68.7757 31.3994 68.5238 32 68.0797 32.4441C67.6357 32.8881 67.0351 33.14 66.4072 33.1457Z" fill="white"/>
<path opacity="0.4" d="M37.3008 43.814L27.2183 53.8965C26.1083 52.9099 25.0291 51.8924 23.9808 50.844C20.8628 47.7052 17.9871 44.3348 15.3783 40.7615C12.9822 37.4904 10.9555 33.9643 9.33496 30.2474C7.92769 27.069 7.17277 23.6404 7.11496 20.1649C7.1017 18.1286 7.47849 16.1086 8.22496 14.214C9.0092 12.2553 10.2206 10.4962 11.7708 9.06488C12.5915 8.17726 13.582 7.46337 14.6836 6.96552C15.7852 6.46767 16.9756 6.19598 18.1841 6.16655C19.0476 6.16313 19.9009 6.35275 20.6816 6.72155C21.5145 7.09851 22.2287 7.69549 22.7475 8.44822L29.9008 18.5307C30.3955 19.199 30.8095 19.9235 31.1341 20.689C31.4019 21.281 31.5487 21.9204 31.5658 22.5699C31.5571 23.3455 31.3329 24.1035 30.9183 24.7591C30.4428 25.5624 29.8621 26.2986 29.1916 26.9482L26.8483 29.3841C26.6851 29.5442 26.5569 29.7365 26.472 29.9489C26.3871 30.1612 26.3472 30.3888 26.355 30.6174C26.3554 30.8568 26.3864 31.0951 26.4475 31.3265C26.54 31.5732 26.6325 31.7582 26.6941 31.9432C27.5221 33.3471 28.4823 34.6686 29.5616 35.8899C30.9491 37.4932 32.4291 39.1274 34.0325 40.7615C35.1425 41.8407 36.2216 42.889 37.3008 43.814Z" fill="white"/>
<path d="M68.6888 56.5175C68.6853 57.4111 68.5289 58.2975 68.2263 59.1384C68.1367 59.3903 68.0338 59.6374 67.918 59.8784C67.3796 61.0253 66.6729 62.0853 65.8213 63.0234C64.4327 64.6031 62.7038 65.8471 60.7646 66.6617C60.7338 66.6617 60.703 66.6925 60.6721 66.6925C58.7919 67.4547 56.7809 67.8422 54.7521 67.8334C51.284 67.7692 47.8648 67.0036 44.7005 65.5825C40.9456 63.9548 37.3873 61.9068 34.0938 59.4775C32.8913 58.5834 31.6888 57.6892 30.548 56.7334L40.6305 46.6509C41.3511 47.2032 42.114 47.6981 42.9121 48.1309C43.0663 48.1925 43.2513 48.285 43.4671 48.3775C43.7143 48.4658 43.9756 48.5077 44.238 48.5009C44.4735 48.5061 44.7076 48.4622 44.9253 48.372C45.1429 48.2817 45.3394 48.1471 45.5021 47.9767L47.8455 45.6642C48.4953 44.9812 49.2436 44.3993 50.0655 43.9375C50.7193 43.5192 51.4784 43.2946 52.2546 43.29C52.9018 43.299 53.5409 43.4352 54.1355 43.6909C54.8946 44.0159 55.6179 44.4189 56.2938 44.8934L66.4996 52.1392C67.2402 52.6234 67.8282 53.3076 68.1955 54.1125C68.5154 54.8743 68.683 55.6914 68.6888 56.5175Z" fill="white"/>
</g>
<defs>
<clipPath id="clip0_195_21111">
<rect width="74" height="74" fill="white" transform="translate(0.947998)"/>
</clipPath>
</defs>
</svg>
