<svg width="68" height="67" viewBox="0 0 68 67" fill="none" xmlns="http://www.w3.org/2000/svg">
<g clip-path="url(#clip0_195_21154)">
<path d="M55.9034 34.0587V38.8045C55.9034 47.5982 50.8784 51.367 43.3409 51.367H18.2159C10.6784 51.367 5.65338 47.5982 5.65338 38.8045V23.7295C5.65338 14.9357 10.6784 11.167 18.2159 11.167H25.7534C25.3762 12.2915 25.1875 13.4706 25.195 14.6566V25.5441C25.1513 26.7522 25.3485 27.9569 25.775 29.088C26.2016 30.2191 26.849 31.254 27.6796 32.1324C28.558 32.963 29.5929 33.6104 30.724 34.037C31.8552 34.4636 33.0599 34.6607 34.268 34.617V38.4974C34.2731 38.8235 34.3655 39.1423 34.5353 39.4208C34.7052 39.6992 34.9465 39.9271 35.2341 40.0809C35.5218 40.2347 35.8453 40.3087 36.1712 40.2954C36.4971 40.282 36.8135 40.1817 37.0875 40.0049L45.1555 34.617H52.4138C53.5998 34.6245 54.7789 34.4358 55.9034 34.0587Z" fill="#3D3D3D"/>
<path opacity="0.4" d="M61.4867 14.6561V25.5436C61.5986 27.3751 61.1153 29.1937 60.1091 30.7282C59.1029 32.2626 57.6277 33.4307 55.9034 34.0582C54.7789 34.4354 53.5998 34.624 52.4138 34.6165H45.1555L37.0876 40.0045C36.8135 40.1813 36.4971 40.2816 36.1712 40.2949C35.8453 40.3083 35.5218 40.2342 35.2341 40.0805C34.9465 39.9267 34.7052 39.6987 34.5354 39.4203C34.3655 39.1419 34.2732 38.8231 34.268 38.497V34.6165C33.0599 34.6603 31.8552 34.4631 30.724 34.0366C29.5929 33.61 28.558 32.9626 27.6796 32.132C26.849 31.2536 26.2016 30.2187 25.775 29.0876C25.3485 27.9564 25.1513 26.7517 25.1951 25.5436V14.6561C25.1876 13.4701 25.3762 12.291 25.7534 11.1665C26.3809 9.44224 27.549 7.96698 29.0834 6.96079C30.6179 5.95459 32.4365 5.47137 34.268 5.58321H52.4138C53.6243 5.51033 54.8364 5.69508 55.9702 6.12526C57.1041 6.55544 58.1337 7.22126 58.9912 8.07875C59.8487 8.93623 60.5145 9.96588 60.9447 11.0997C61.3748 12.2335 61.5596 13.4456 61.4867 14.6561Z" fill="#1B1C1C"/>
<path opacity="0.4" d="M40.8284 59.3225H32.8721V51.3662C32.8721 50.8109 32.6516 50.2784 32.2589 49.8857C31.8662 49.4931 31.3337 49.2725 30.7784 49.2725C30.2231 49.2725 29.6905 49.4931 29.2979 49.8857C28.9052 50.2784 28.6846 50.8109 28.6846 51.3662V59.3225H20.7284C20.1731 59.3225 19.6405 59.5431 19.2479 59.9357C18.8552 60.3284 18.6346 60.8609 18.6346 61.4162C18.6346 61.9715 18.8552 62.5041 19.2479 62.8967C19.6405 63.2894 20.1731 63.51 20.7284 63.51H40.8284C41.3837 63.51 41.9162 63.2894 42.3089 62.8967C42.7016 62.5041 42.9221 61.9715 42.9221 61.4162C42.9221 60.8609 42.7016 60.3284 42.3089 59.9357C41.9162 59.5431 41.3837 59.3225 40.8284 59.3225Z" fill="#3D3D3D"/>
<path d="M43.1734 22.333C42.7593 22.333 42.3545 22.2102 42.0102 21.9801C41.6659 21.7501 41.3975 21.4231 41.239 21.0405C41.0806 20.6579 41.0391 20.2369 41.1199 19.8308C41.2007 19.4246 41.4001 19.0516 41.6929 18.7588C41.9857 18.4659 42.3588 18.2665 42.7649 18.1857C43.1711 18.105 43.5921 18.1464 43.9746 18.3049C44.3572 18.4634 44.6842 18.7317 44.9143 19.076C45.1444 19.4203 45.2672 19.8252 45.2672 20.2393C45.2675 20.5143 45.2136 20.7867 45.1085 21.0409C45.0034 21.2951 44.8492 21.5261 44.6547 21.7206C44.4602 21.9151 44.2293 22.0693 43.9751 22.1744C43.7209 22.2795 43.4485 22.3334 43.1734 22.333Z" fill="#3D3D3D"/>
<path d="M51.018 22.333C50.6039 22.333 50.1991 22.2102 49.8548 21.9801C49.5105 21.7501 49.2421 21.4231 49.0836 21.0405C48.9252 20.6579 48.8837 20.2369 48.9645 19.8308C49.0453 19.4246 49.2447 19.0516 49.5375 18.7588C49.8303 18.4659 50.2034 18.2665 50.6095 18.1857C51.0157 18.105 51.4367 18.1464 51.8192 18.3049C52.2018 18.4634 52.5288 18.7317 52.7589 19.076C52.989 19.4203 53.1118 19.8252 53.1118 20.2393C53.1121 20.5143 53.0582 20.7867 52.9531 21.0409C52.848 21.2951 52.6938 21.5261 52.4993 21.7206C52.3048 21.9151 52.0739 22.0693 51.8197 22.1744C51.5655 22.2795 51.2931 22.3334 51.018 22.333Z" fill="#3D3D3D"/>
<path d="M35.3009 22.333C34.8868 22.333 34.482 22.2102 34.1377 21.9801C33.7934 21.7501 33.525 21.4231 33.3665 21.0405C33.2081 20.6579 33.1666 20.2369 33.2474 19.8308C33.3282 19.4246 33.5276 19.0516 33.8204 18.7588C34.1132 18.4659 34.4863 18.2665 34.8924 18.1857C35.2986 18.105 35.7196 18.1464 36.1021 18.3049C36.4847 18.4634 36.8117 18.7317 37.0418 19.076C37.2719 19.4203 37.3947 19.8252 37.3947 20.2393C37.395 20.5143 37.3411 20.7867 37.236 21.0409C37.1309 21.2951 36.9767 21.5261 36.7822 21.7206C36.5877 21.9151 36.3568 22.0693 36.1026 22.1744C35.8484 22.2795 35.576 22.3334 35.3009 22.333Z" fill="#3D3D3D"/>
</g>
<defs>
<clipPath id="clip0_195_21154">
<rect width="67" height="67" fill="white" transform="translate(0.0700684)"/>
</clipPath>
</defs>
</svg>
