<svg width="76" height="75" viewBox="0 0 76 75" fill="none" xmlns="http://www.w3.org/2000/svg">
<g clip-path="url(#clip0_195_21135)">
<path opacity="0.4" d="M46.6487 18.75H29.2112C15.3987 18.75 15.3987 26.0938 15.3987 32.5625V38.1562C15.3968 38.4885 15.472 38.8166 15.6184 39.1149C15.7648 39.4131 15.9784 39.6733 16.2425 39.875C16.5099 40.0801 16.821 40.2207 17.1517 40.2857C17.4823 40.3508 17.8236 40.3386 18.1487 40.25C19.8676 39.8396 21.6319 39.6506 23.3987 39.6875C24.0774 39.6007 24.7668 39.6618 25.4195 39.8668C26.0722 40.0718 26.6728 40.4158 27.18 40.875L30.0237 43.875C31.0417 44.9599 32.2712 45.8246 33.6364 46.4157C35.0016 47.0069 36.4735 47.3118 37.9612 47.3118C39.4489 47.3118 40.9208 47.0069 42.286 46.4157C43.6512 45.8246 44.8808 44.9599 45.8987 43.875L48.7425 40.875C49.2496 40.4158 49.8502 40.0718 50.5029 39.8668C51.1557 39.6618 51.8451 39.6007 52.5237 39.6875C54.2905 39.6506 56.0548 39.8396 57.7737 40.25C58.0962 40.3391 58.4349 40.3524 58.7634 40.289C59.0919 40.2256 59.4013 40.0872 59.6675 39.8845C59.9337 39.6818 60.1495 39.4204 60.298 39.1206C60.4465 38.8209 60.5238 38.4908 60.5237 38.1562V32.5625C60.4612 26.0938 60.4612 18.75 46.6487 18.75Z" fill="#1B1C1C"/>
<path d="M45.055 15.4688C44.6596 15.8592 44.1263 16.0782 43.5706 16.0782C43.0149 16.0782 42.4816 15.8592 42.0862 15.4688L40.055 13.4375V28.3438C40.055 28.9073 39.8311 29.4478 39.4326 29.8464C39.0341 30.2449 38.4936 30.4688 37.93 30.4688C37.3664 30.4688 36.8259 30.2449 36.4274 29.8464C36.0289 29.4478 35.805 28.9073 35.805 28.3438V13.4375L33.7737 15.4688C33.3765 15.8449 32.8482 16.0512 32.3012 16.0438C31.7542 16.0364 31.2316 15.8157 30.8448 15.4289C30.458 15.0421 30.2374 14.5196 30.2299 13.9725C30.2225 13.4255 30.4288 12.8972 30.805 12.5L36.4456 6.875C36.4769 6.84375 36.4769 6.84375 36.5081 6.84375C36.6913 6.67308 36.9028 6.53561 37.1331 6.4375C37.3822 6.31859 37.654 6.25464 37.93 6.25C38.2076 6.25659 38.4822 6.3094 38.7425 6.40625C39.0071 6.50278 39.2434 6.66391 39.43 6.875L45.055 12.5C45.4454 12.8954 45.6644 13.4287 45.6644 13.9844C45.6644 14.5401 45.4454 15.0734 45.055 15.4688Z" fill="#3D3D3D"/>
<path d="M58.8362 36.031C56.7507 35.5194 54.6082 35.2778 52.4612 35.3123C51.282 35.2271 50.0976 35.3766 48.9765 35.7521C47.8555 36.1276 46.82 36.7216 45.9299 37.4998C45.8286 37.5742 45.7345 37.6579 45.6487 37.7498L42.6799 40.906C42.058 41.5348 41.3171 42.0334 40.5005 42.3727C39.6838 42.712 38.8077 42.8853 37.9234 42.8824C37.039 42.8795 36.1641 42.7005 35.3497 42.3558C34.5353 42.0111 33.7977 41.5076 33.1799 40.8748L30.2112 37.7498C30.1254 37.6579 30.0312 37.5742 29.9299 37.4998C29.0399 36.7216 28.0044 36.1276 26.8833 35.7521C25.7623 35.3766 24.5779 35.2271 23.3987 35.3123C21.2517 35.2778 19.1091 35.5194 17.0237 36.031C9.58618 38.031 9.58618 43.9373 9.58618 49.1248V52.031C9.58618 59.8748 9.58618 68.7498 26.3049 68.7498H49.5549C60.6487 68.7498 66.2737 63.1248 66.2737 52.031V49.1248C66.2737 43.9373 66.2737 38.031 58.8362 36.031ZM45.2112 57.4998H30.6487C30.0685 57.4998 29.5121 57.2693 29.1019 56.8591C28.6917 56.4489 28.4612 55.8925 28.4612 55.3123C28.4612 54.7321 28.6917 54.1757 29.1019 53.7655C29.5121 53.3553 30.0685 53.1248 30.6487 53.1248H45.2112C45.7913 53.1248 46.3477 53.3553 46.758 53.7655C47.1682 54.1757 47.3987 54.7321 47.3987 55.3123C47.3987 55.8925 47.1682 56.4489 46.758 56.8591C46.3477 57.2693 45.7913 57.4998 45.2112 57.4998Z" fill="#3D3D3D"/>
<path opacity="0.4" d="M47.3675 55.3125C47.37 55.5978 47.3161 55.8808 47.209 56.1453C47.1019 56.4098 46.9437 56.6505 46.7434 56.8538C46.5431 57.057 46.3046 57.2187 46.0417 57.3295C45.7788 57.4404 45.4966 57.4984 45.2113 57.5H30.6488C30.3634 57.4984 30.0812 57.4404 29.8183 57.3295C29.5554 57.2187 29.317 57.057 29.1167 56.8538C28.9163 56.6505 28.7581 56.4098 28.651 56.1453C28.5439 55.8808 28.49 55.5978 28.4925 55.3125C28.49 55.0272 28.5439 54.7442 28.651 54.4797C28.7581 54.2152 28.9163 53.9745 29.1167 53.7712C29.317 53.568 29.5554 53.4063 29.8183 53.2955C30.0812 53.1846 30.3634 53.1266 30.6488 53.125H45.2113C45.4966 53.1266 45.7788 53.1846 46.0417 53.2955C46.3046 53.4063 46.5431 53.568 46.7434 53.7712C46.9437 53.9745 47.1019 54.2152 47.209 54.4797C47.3161 54.7442 47.37 55.0272 47.3675 55.3125Z" fill="#191A1A"/>
</g>
<defs>
<clipPath id="clip0_195_21135">
<rect width="75" height="75" fill="white" transform="translate(0.429932)"/>
</clipPath>
</defs>
</svg>
