<svg width="75" height="74" viewBox="0 0 75 74" fill="none" xmlns="http://www.w3.org/2000/svg">
<g clip-path="url(#clip0_195_21143)">
<path opacity="0.4" d="M55.5701 9.25008H18.5701C15.3116 9.23861 12.1819 10.5216 9.86914 12.8171C7.55636 15.1125 6.24982 18.2324 6.23676 21.4909L6.23676 52.5092C6.24982 55.7677 7.55636 58.8877 9.86914 61.1831C12.1819 63.4785 15.3116 64.7615 18.5701 64.7501H55.5701C58.8286 64.7615 61.9583 63.4785 64.271 61.1831C66.5838 58.8877 67.8904 55.7677 67.9034 52.5092V21.4909C67.8904 18.2324 66.5838 15.1125 64.271 12.8171C61.9583 10.5216 58.8286 9.23861 55.5701 9.25008Z" fill="#1B1C1C"/>
<path d="M58.6534 26.979H43.2368C42.6247 26.975 42.0388 26.73 41.606 26.2972C41.1732 25.8644 40.9283 25.2786 40.9243 24.6665C40.9283 24.0544 41.1732 23.4686 41.606 23.0358C42.0388 22.603 42.6247 22.358 43.2368 22.354H58.6534C59.2655 22.358 59.8513 22.603 60.2841 23.0358C60.7169 23.4686 60.9619 24.0544 60.9659 24.6665C60.9619 25.2786 60.7169 25.8644 60.2841 26.2972C59.8513 26.73 59.2655 26.975 58.6534 26.979Z" fill="#3D3D3D"/>
<path d="M58.6534 39.3125H46.3201C45.708 39.3085 45.1222 39.0635 44.6893 38.6307C44.2565 38.1979 44.0116 37.6121 44.0076 37C44.0116 36.3879 44.2565 35.8021 44.6893 35.3693C45.1222 34.9365 45.708 34.6915 46.3201 34.6875H58.6534C59.2655 34.6915 59.8513 34.9365 60.2841 35.3693C60.7169 35.8021 60.9619 36.3879 60.9659 37C60.9619 37.6121 60.7169 38.1979 60.2841 38.6307C59.8513 39.0635 59.2655 39.3085 58.6534 39.3125Z" fill="#3D3D3D"/>
<path d="M58.6534 51.646H52.4868C51.8747 51.642 51.2888 51.397 50.856 50.9642C50.4232 50.5314 50.1783 49.9456 50.1743 49.3335C50.1783 48.7214 50.4232 48.1356 50.856 47.7028C51.2888 47.27 51.8747 47.025 52.4868 47.021H58.6534C59.2655 47.025 59.8513 47.27 60.2841 47.7028C60.7169 48.1356 60.9619 48.7214 60.9659 49.3335C60.9619 49.9456 60.7169 50.5314 60.2841 50.9642C59.8513 51.397 59.2655 51.642 58.6534 51.646Z" fill="#3D3D3D"/>
<path d="M33.4009 29.2299C33.4009 30.6386 32.9832 32.0157 32.2006 33.187C31.418 34.3583 30.3056 35.2712 29.0041 35.8103C27.7026 36.3493 26.2705 36.4904 24.8889 36.2156C23.5073 35.9407 22.2382 35.2624 21.2421 34.2663C20.246 33.2702 19.5676 32.0011 19.2928 30.6195C19.018 29.2378 19.159 27.8057 19.6981 26.5043C20.2372 25.2028 21.1501 24.0904 22.3214 23.3078C23.4927 22.5251 24.8698 22.1074 26.2784 22.1074C28.1675 22.1074 29.9791 22.8578 31.3148 24.1936C32.6505 25.5293 33.4009 27.3409 33.4009 29.2299Z" fill="#3D3D3D"/>
<path d="M28.742 40.4257C27.0909 40.2715 25.429 40.2715 23.7778 40.4257C21.2596 40.6625 18.9019 41.7667 17.1078 43.5496C15.3137 45.3324 14.1946 47.6832 13.942 50.1999C13.9205 50.4125 13.9451 50.6273 14.0143 50.8295C14.0835 51.0318 14.1956 51.2166 14.3428 51.3715C14.639 51.6901 15.0491 51.8785 15.4837 51.8957H37.067C37.2808 51.896 37.4924 51.8524 37.6887 51.7675C37.8849 51.6827 38.0616 51.5584 38.2078 51.4024C38.349 51.2434 38.4571 51.0579 38.5259 50.8568C38.5948 50.6556 38.6229 50.4428 38.6087 50.2307C38.3554 47.7061 37.2329 45.3479 35.4331 43.5594C33.6334 41.7709 31.2682 40.6632 28.742 40.4257Z" fill="#3D3D3D"/>
</g>
<defs>
<clipPath id="clip0_195_21143">
<rect width="74" height="74" fill="white" transform="translate(0.0700684)"/>
</clipPath>
</defs>
</svg>
