<svg width="78" height="77" viewBox="0 0 78 77" fill="none" xmlns="http://www.w3.org/2000/svg">
<g clip-path="url(#clip0_195_21167)">
<path opacity="0.4" d="M25.0528 67.0864C24.9566 67.0864 24.8283 67.1506 24.732 67.1506C18.4935 64.0401 13.437 58.9836 10.3266 52.7451C10.3266 52.6489 10.3908 52.5206 10.3908 52.4243C14.3223 53.5612 18.3185 54.4611 22.3578 55.1193C23.028 59.1563 23.9277 63.1518 25.0528 67.0864Z" fill="#2C2F2F"/>
<path opacity="0.4" d="M67.6916 52.7772C64.4776 59.1804 59.2308 64.3369 52.7728 67.4393C54.0104 63.3998 54.9856 59.2846 55.6924 55.1193C59.7219 54.4646 63.7076 53.5646 67.6274 52.4243C67.5953 52.5526 67.6916 52.681 67.6916 52.7772Z" fill="#2C2F2F"/>
<path opacity="0.4" d="M67.9482 24.7365C63.9274 23.5105 59.8342 22.5354 55.6924 21.8169C55.0081 17.6681 54.0325 13.5727 52.7728 9.56104C59.4154 12.7387 64.7706 18.0938 67.9482 24.7365Z" fill="#2C2F2F"/>
<path opacity="0.4" d="M25.0528 9.91363C23.9231 13.8341 23.0338 17.8198 22.3899 21.8486C18.2222 22.5292 14.1059 23.4939 10.0699 24.7361C13.1723 18.2781 18.3288 13.0314 24.732 9.81738C24.8282 9.81738 24.9566 9.91363 25.0528 9.91363Z" fill="#2C2F2F"/>
<path d="M50.2062 21.1428C42.7648 20.3086 35.2534 20.3086 27.812 21.1428C28.5806 16.7262 29.6744 12.3724 31.0845 8.11692C31.1218 7.88336 31.1432 7.64754 31.1487 7.41109C33.7201 6.76873 36.3588 6.43485 39.0091 6.4165C41.6489 6.43484 44.277 6.76873 46.8374 7.41109C46.8537 7.64825 46.8859 7.88405 46.9337 8.11692C48.34 12.3735 49.4337 16.727 50.2062 21.1428Z" fill="#3D3D3D"/>
<path d="M21.652 49.6969C17.2346 48.9321 12.8805 47.8382 8.6262 46.4244C8.39264 46.3871 8.15682 46.3657 7.92036 46.3602C7.27801 43.7889 6.94413 41.1501 6.92578 38.4998C6.94411 35.8601 7.27801 33.232 7.92036 30.6715C8.15753 30.6552 8.39333 30.623 8.6262 30.5752C12.886 29.1801 17.2387 28.0866 21.652 27.3027C20.8499 34.7459 20.8499 42.2537 21.652 49.6969Z" fill="#3D3D3D"/>
<path d="M71.0925 38.4998C71.0741 41.1501 70.7402 43.7889 70.0979 46.3602C69.8614 46.3657 69.6256 46.3871 69.392 46.4244C65.1312 47.8158 60.7787 48.9092 56.3662 49.6969C57.2004 42.2555 57.2004 34.7442 56.3662 27.3027C60.7828 28.0713 65.1366 29.1651 69.392 30.5752C69.622 30.6387 69.8594 30.671 70.0979 30.6715C70.7382 33.2323 71.0721 35.8602 71.0925 38.4998Z" fill="#3D3D3D"/>
<path d="M50.2062 55.8569C49.4414 60.2743 48.3475 64.6284 46.9337 68.8828C46.8859 69.1156 46.8537 69.3514 46.8374 69.5886C44.277 70.231 41.6489 70.5649 39.0091 70.5832C36.3588 70.5648 33.7201 70.231 31.1487 69.5886C31.1432 69.3521 31.1218 69.1163 31.0845 68.8828C29.6894 64.623 28.5958 60.2703 27.812 55.8569C31.5283 56.3008 35.2665 56.5364 39.0091 56.5628C42.7517 56.5374 46.49 56.3018 50.2062 55.8569Z" fill="#3D3D3D"/>
<path d="M51.0821 50.5731C43.0642 51.5856 34.9508 51.5856 26.933 50.5731C25.9205 42.5552 25.9205 34.4418 26.933 26.4239C34.9508 25.4114 43.0642 25.4114 51.0821 26.4239C52.0946 34.4418 52.0946 42.5552 51.0821 50.5731Z" fill="#3D3D3D"/>
</g>
<defs>
<clipPath id="clip0_195_21167">
<rect width="77" height="77" fill="white" transform="translate(0.509094)"/>
</clipPath>
</defs>
</svg>
