<svg width="81" height="81" viewBox="0 0 81 81" fill="none" xmlns="http://www.w3.org/2000/svg">
<g clip-path="url(#clip0_195_21127)">
<path opacity="0.4" d="M57.5966 30.7746C57.3689 37.1817 54.6088 43.2367 49.9219 47.6112C45.235 51.9856 39.0042 54.3221 32.5966 54.1079L29.4966 57.8413L27.6633 60.0413C27.3014 60.4754 26.835 60.8103 26.3081 61.0146C25.7811 61.2189 25.2109 61.2859 24.6509 61.2093C24.0909 61.1326 23.5597 60.9148 23.107 60.5764C22.6544 60.238 22.2952 59.79 22.0633 59.2746L17.5966 49.4413C14.547 47.3679 12.0447 44.5871 10.3033 41.3365C8.56189 38.0859 7.63322 34.4621 7.59662 30.7746C7.82434 24.3675 10.5845 18.3124 15.2714 13.938C19.9582 9.56357 26.1891 7.2271 32.5966 7.44126C37.2636 7.36594 41.8589 8.59625 45.8639 10.9934C49.869 13.3905 53.1245 16.8591 55.2633 21.0079C56.8001 24.034 57.5996 27.3806 57.5966 30.7746Z" fill="#202223"/>
<path d="M74.2633 43.6411C74.2267 47.3286 73.298 50.9525 71.5566 54.2031C69.8153 57.4537 67.3129 60.2344 64.2633 62.3078L59.7966 72.1411C59.5647 72.6565 59.2056 73.1045 58.7529 73.4429C58.3003 73.7814 57.769 73.9991 57.209 74.0758C56.6491 74.1525 56.0788 74.0855 55.5519 73.8812C55.0249 73.6769 54.5586 73.3419 54.1966 72.9078L49.2633 66.9745C45.4968 67.0174 41.768 66.2199 38.3486 64.6399C34.9292 63.0599 31.9052 60.7373 29.4966 57.8411L32.5966 54.1078C39.0042 54.322 45.235 51.9855 49.9219 47.6111C54.6088 43.2366 57.3689 37.1816 57.5966 30.7745C57.5997 27.3805 56.8001 24.0339 55.2633 21.0078C60.5242 22.0735 65.268 24.8924 68.7192 29.0036C72.1705 33.1148 74.125 38.2752 74.2633 43.6411Z" fill="#3D3D3D"/>
<path d="M40.9299 33.2744H24.2632C23.6016 33.27 22.9682 33.0053 22.5003 32.5374C22.0324 32.0695 21.7676 31.4361 21.7632 30.7744C21.7676 30.1127 22.0324 29.4794 22.5003 29.0115C22.9682 28.5436 23.6016 28.2788 24.2632 28.2744H40.9299C41.5916 28.2788 42.225 28.5436 42.6929 29.0115C43.1607 29.4794 43.4255 30.1127 43.4299 30.7744C43.4255 31.4361 43.1607 32.0695 42.6929 32.5374C42.225 33.0053 41.5916 33.27 40.9299 33.2744Z" fill="#3D3D3D"/>
</g>
<defs>
<clipPath id="clip0_195_21127">
<rect width="80" height="80" fill="white" transform="translate(0.929932 0.774414)"/>
</clipPath>
</defs>
</svg>
