<svg width="31" height="31" viewBox="0 0 31 31" fill="none" xmlns="http://www.w3.org/2000/svg">
<g clip-path="url(#clip0_17_19542)">
<circle cx="15.3467" cy="15.6794" r="15" fill="white"/>
<path d="M30.3467 15.7679C30.3462 12.8841 29.5244 10.0607 27.9785 7.63212C26.4327 5.20354 24.2276 3.27142 21.6242 2.06452C19.0208 0.857607 16.1283 0.426446 13.2889 0.822073C10.4495 1.2177 7.7823 2.42355 5.60295 4.29687C3.42361 6.17018 1.82341 8.63252 0.991806 11.3924C0.160201 14.1522 0.132011 17.094 0.910573 19.8695C1.68914 22.6449 3.24185 25.1379 5.38489 27.0531C7.52793 28.9683 10.1716 30.2257 13.0028 30.6763V20.1304H9.19229V15.7679H13.0028V12.443C13.0028 8.66103 15.2405 6.57207 18.6683 6.57207C19.7932 6.58773 20.9155 6.6861 22.0262 6.8664V10.5785H20.1345C18.2718 10.5785 17.6906 11.742 17.6906 12.9353V15.7679H21.851L21.1852 20.1304H17.6901V30.6763C21.2183 30.1137 24.4312 28.3033 26.7512 25.5705C29.0712 22.8377 30.3461 19.3619 30.3467 15.7679Z" fill="#1877F2"/>
</g>
<defs>
<clipPath id="clip0_17_19542">
<rect width="30" height="30" fill="white" transform="translate(0.34668 0.676758)"/>
</clipPath>
</defs>
</svg>
