<svg width="31" height="31" viewBox="0 0 31 31" fill="none" xmlns="http://www.w3.org/2000/svg">
<g clip-path="url(#clip0_17_19535)">
<path d="M30.2903 15.5419C30.2903 14.3129 30.1906 13.416 29.9747 12.4858H15.9398V18.0333H24.178C24.0119 19.4119 23.115 21.4881 21.1219 22.8832L21.0939 23.069L25.5315 26.5067L25.839 26.5374C28.6625 23.9297 30.2903 20.0929 30.2903 15.5419Z" fill="#4285F4"/>
<path d="M15.9409 30.1633C19.9773 30.1633 23.3658 28.8342 25.8409 26.5419L21.1234 22.8871C19.8611 23.7676 18.1667 24.3822 15.9409 24.3822C11.9876 24.3822 8.63227 21.7742 7.43618 18.1694L7.26086 18.1843L2.64622 21.7559L2.58588 21.9237C5.04424 26.8075 10.0939 30.1633 15.9409 30.1633Z" fill="#34A853"/>
<path d="M7.43542 18.1677C7.11984 17.2376 6.93721 16.2409 6.93721 15.2112C6.93721 14.1814 7.11984 13.1848 7.41881 12.2547L7.41046 12.0566L2.73836 8.42822L2.58549 8.50093C1.57236 10.5273 0.991028 12.8028 0.991028 15.2112C0.991028 17.6196 1.57236 19.895 2.58549 21.9214L7.43542 18.1677Z" fill="#FBBC05"/>
<path d="M15.9399 6.04176C18.7468 6.04176 20.6403 7.25424 21.7199 8.26748L25.9387 4.14832C23.3477 1.73996 19.9759 0.261719 15.9399 0.261719C10.0933 0.261719 5.04404 3.61679 2.58588 8.49992L7.4192 12.2537C8.63179 8.64947 11.9869 6.04176 15.9399 6.04176Z" fill="#EB4335"/>
</g>
<defs>
<clipPath id="clip0_17_19535">
<rect width="30" height="30" fill="white" transform="translate(0.654114 0.261719)"/>
</clipPath>
</defs>
</svg>
