<svg width="31" height="31" viewBox="0 0 31 31" fill="none" xmlns="http://www.w3.org/2000/svg">
<path d="M25.1201 17.7642V15.7642C25.1201 14.6596 24.2247 13.7642 23.1201 13.7642H3.12012C2.01555 13.7642 1.12012 14.6596 1.12012 15.7642V27.7642C1.12012 28.8687 2.01555 29.7642 3.12012 29.7642H23.1201C24.2247 29.7642 25.1201 28.8687 25.1201 27.7642V25.7642M25.1201 17.7642H17.1201C14.911 17.7642 13.1201 19.555 13.1201 21.7642C13.1201 23.9733 14.911 25.7642 17.1201 25.7642H25.1201M25.1201 17.7642C27.3293 17.7642 29.1201 19.555 29.1201 21.7642C29.1201 23.9733 27.3293 25.7642 25.1201 25.7642M7.12012 13.7642V7.76416C7.12012 4.45045 9.80641 1.76416 13.1201 1.76416C16.4338 1.76416 19.1201 4.45045 19.1201 7.76416V13.7642M24.1201 21.7642H26.1201M20.1201 21.7642H22.1201M16.1201 21.7642H18.1201" stroke="white" stroke-opacity="0.8"/>
</svg>
