<svg width="395" height="17" viewBox="0 0 395 17" fill="none" xmlns="http://www.w3.org/2000/svg">
<line y1="10.7245" x2="164.163" y2="10.7245" stroke="#4A4754"/>
<line x1="230.729" y1="10.7245" x2="394.892" y2="10.7245" stroke="#4A4754"/>
<path d="M195.264 13.9823C194.62 13.9823 194.051 13.8376 193.556 13.5483C193.071 13.2589 192.693 12.8483 192.422 12.3163C192.161 11.7749 192.03 11.1496 192.03 10.4403C192.03 9.73094 192.161 9.11028 192.422 8.57828C192.693 8.03694 193.071 7.62161 193.556 7.33228C194.051 7.04294 194.62 6.89828 195.264 6.89828C195.908 6.89828 196.477 7.04294 196.972 7.33228C197.467 7.62161 197.845 8.03694 198.106 8.57828C198.377 9.11028 198.512 9.73094 198.512 10.4403C198.512 11.1496 198.377 11.7749 198.106 12.3163C197.845 12.8483 197.467 13.2589 196.972 13.5483C196.477 13.8376 195.908 13.9823 195.264 13.9823ZM195.264 13.0443C195.936 13.0443 196.449 12.8249 196.804 12.3863C197.168 11.9383 197.35 11.2896 197.35 10.4403C197.35 9.60961 197.168 8.97028 196.804 8.52228C196.44 8.06494 195.927 7.83628 195.264 7.83628C194.601 7.83628 194.088 8.06494 193.724 8.52228C193.36 8.97028 193.178 9.60961 193.178 10.4403C193.178 11.2803 193.355 11.9243 193.71 12.3723C194.074 12.8203 194.592 13.0443 195.264 13.0443ZM204.066 7.87828L203.324 7.94828C202.624 8.01361 202.115 8.23294 201.798 8.60628C201.49 8.97961 201.336 9.44161 201.336 9.99228V13.8843H200.202V7.06628H201.308V8.25628C201.69 7.46294 202.442 7.01961 203.562 6.92628L203.968 6.89828L204.066 7.87828Z" fill="white"/>
</svg>
