<svg width="99" height="99" viewBox="0 0 99 99" fill="none" xmlns="http://www.w3.org/2000/svg">
<path d="M37.8205 22.1212C37.3228 22.2207 36.8864 22.504 36.5955 22.9175L30.9605 30.4512C28.1276 31.8523 25.4939 34.0956 24.1005 35.4125C24.8201 35.8029 25.3484 36.0326 25.448 36.0862C25.8614 36.3159 36.5036 44.309 40.148 63.2812C40.5001 65.1264 42.108 65.2412 42.108 65.2412H55.828C55.828 65.2412 57.4281 65.3637 57.788 63.2812C58.5383 58.9325 60.2226 52.9223 61.5855 49.5612H53.868C49.4809 49.5612 46.1581 44.7684 42.6592 39.7C40.4006 36.4307 37.92 32.9012 35.3705 31.125L39.168 26.0412H46.028C46.7323 26.0489 47.3908 25.6814 47.7506 25.0689C48.1028 24.4564 48.1028 23.7061 47.7506 23.0936C47.3908 22.4811 46.7323 22.1136 46.028 22.1212H38.188C38.1267 22.1212 38.0655 22.1212 38.0042 22.1212C37.943 22.1212 37.8817 22.1212 37.8205 22.1212ZM40.4542 30.39C42.3836 32.4418 44.1675 34.9837 45.9055 37.495C48.5545 41.3231 51.5328 45.6412 53.868 45.6412H63.3005C64.6939 42.7242 65.827 40.8561 65.9342 40.68C66.1486 40.3201 66.4625 40.0445 66.853 39.8837C67.4042 39.654 79.9222 34.4937 88.1067 33.9425C87.9306 33.9578 87.7928 33.9272 87.6167 33.9425C87.4712 33.9118 87.3411 33.8812 87.188 33.8812C75.1294 33.8812 66.2864 35.6039 60.4217 36.76C57.5659 37.3265 55.2844 37.8012 53.868 37.8012C52.2601 37.8012 49.6111 36.27 46.5792 33.575C44.8106 31.9978 42.6898 30.9336 40.4542 30.39ZM18.833 37.0662L9.52296 39.0875C6.85093 39.6847 4.82203 41.9509 4.43921 44.6612L2.90796 55.135C2.86968 55.4259 2.94624 55.7245 3.03046 55.9925C3.03812 56.0078 3.02281 56.0384 3.03046 56.0537L4.99046 61.9337C5.25843 62.7376 5.98578 63.2812 6.82796 63.2812H7.01171C6.91984 63.9243 6.82796 64.5751 6.82796 65.2412C6.82796 72.8056 12.9836 78.9612 20.548 78.9612C28.1123 78.9612 34.268 72.8056 34.268 65.2412C34.268 63.8784 34.0919 62.5615 33.7167 61.3212H35.738C31.7261 44.4392 23.5722 39.5622 23.488 39.5162C23.442 39.4932 21.3442 38.1534 18.833 37.0662ZM92.9455 37.3725L89.393 37.8012C89.3241 37.8089 89.2781 37.8012 89.2092 37.8012C82.7397 37.9314 71.6458 42.2342 68.9355 43.3137C67.787 45.3579 63.8441 52.7845 62.0755 61.3212H64.2192C63.8517 62.5615 63.668 63.8784 63.668 65.2412C63.668 72.8056 69.8236 78.9612 77.388 78.9612C84.9523 78.9612 91.108 72.8056 91.108 65.2412C91.108 58.2281 85.8405 52.4553 79.0417 51.6437L80.3892 49.5612H95.028C95.6252 49.5612 96.1841 49.2856 96.5592 48.8262C96.9267 48.3592 97.0569 47.7543 96.9267 47.1725C96.8655 46.8892 95.6864 41.5834 92.9455 37.3725ZM14.3005 42.0887L12.708 47.6012L7.74671 49.255L8.29796 45.2125C8.45109 44.11 9.29328 43.1836 10.3805 42.9462L14.3005 42.0887ZM20.548 55.4412C25.9533 55.4412 30.348 59.8359 30.348 65.2412C30.348 70.6465 25.9533 75.0412 20.548 75.0412C15.1426 75.0412 10.748 70.6465 10.748 65.2412C10.748 59.8359 15.1426 55.4412 20.548 55.4412ZM77.388 55.4412C82.7933 55.4412 87.188 59.8359 87.188 65.2412C87.188 70.6465 82.7933 75.0412 77.388 75.0412C71.9827 75.0412 67.588 70.6465 67.588 65.2412C67.588 59.8359 71.9827 55.4412 77.388 55.4412ZM20.548 59.3612C17.3017 59.3612 14.668 61.995 14.668 65.2412C14.668 68.4875 17.3017 71.1212 20.548 71.1212C23.7942 71.1212 26.428 68.4875 26.428 65.2412C26.428 61.995 23.7942 59.3612 20.548 59.3612ZM77.388 59.3612C74.1417 59.3612 71.508 61.995 71.508 65.2412C71.508 68.4875 74.1417 71.1212 77.388 71.1212C80.6342 71.1212 83.268 68.4875 83.268 65.2412C83.268 61.995 80.6342 59.3612 77.388 59.3612Z" fill="#3D3D3D"/>
<circle cx="20.542" cy="65.0547" r="6.02295" fill="#202223"/>
<circle cx="77.3052" cy="65.0548" r="6.57385" fill="#202223"/>
</svg>
