<svg width="71" height="71" viewBox="0 0 71 71" fill="none" xmlns="http://www.w3.org/2000/svg">
<g clip-path="url(#clip0_193_20882)">
<path opacity="0.4" d="M65.6216 40.4107C65.1841 35.5294 63.9008 30.3228 54.5383 30.3228H17.3216C7.95913 30.3228 6.70496 35.5294 6.2383 40.4107L4.60496 58.4269C4.5027 59.5449 4.63146 60.6721 4.983 61.7367C5.33455 62.8014 5.90116 63.7799 6.64663 64.6098C7.41714 65.4625 8.35481 66.1424 9.39954 66.606C10.4443 67.0696 11.573 67.3066 12.7133 67.3019H18.1966C19.6084 67.4853 21.0359 67.1162 22.1889 66.2699C23.3419 65.4236 24.1337 64.1635 24.4033 62.7461L24.9866 60.9711C25.6575 58.9298 25.8325 58.4269 28.4575 58.4269H43.3908C46.0158 58.4269 46.1033 58.7228 46.8616 60.9711L47.445 62.7461C47.7146 64.1647 48.5072 65.4257 49.6615 66.2721C50.8158 67.1186 52.2448 67.4869 53.6575 67.3019H59.1408C60.2807 67.3037 61.4085 67.0654 62.4528 66.602C63.4971 66.1386 64.4352 65.4602 65.2075 64.6098C65.9529 63.7799 66.5195 62.8014 66.8711 61.7367C67.2226 60.6721 67.3514 59.5449 67.2491 58.4269L65.6216 40.4107Z" fill="#202223"/>
<path d="M62.1799 21.4479H59.2049L58.0966 16.0933C57.0466 10.9162 54.8591 6.15332 46.1674 6.15332H25.6924C17.0008 6.15332 14.8133 10.9162 13.7633 16.0933L12.6549 21.4479H9.67993C9.09977 21.4479 8.54337 21.6817 8.13314 22.0978C7.7229 22.5139 7.49243 23.0782 7.49243 23.6667C7.49243 24.2551 7.7229 24.8195 8.13314 25.2355C8.54337 25.6516 9.09977 25.8854 9.67993 25.8854H11.7508L10.5258 31.8021C12.6253 30.7168 14.9679 30.2069 17.3216 30.3229H54.5383C56.8919 30.2069 59.2346 30.7168 61.3341 31.8021L60.1091 25.8854H62.1799C62.7601 25.8854 63.3165 25.6516 63.7267 25.2355C64.137 24.8195 64.3674 24.2551 64.3674 23.6667C64.3674 23.0782 64.137 22.5139 63.7267 22.0978C63.3165 21.6817 62.7601 21.4479 62.1799 21.4479Z" fill="#3D3D3D"/>
<path d="M27.1799 46.5938H18.4299C17.851 46.5899 17.2968 46.3549 16.8874 45.9396C16.4779 45.5244 16.2463 44.9623 16.2424 44.375C16.2463 43.7877 16.4779 43.2256 16.8874 42.8104C17.2968 42.3951 17.851 42.1601 18.4299 42.1562H27.1799C27.7589 42.1601 28.3131 42.3951 28.7225 42.8104C29.1319 43.2256 29.3636 43.7877 29.3674 44.375C29.3636 44.9623 29.1319 45.5244 28.7225 45.9396C28.3131 46.3549 27.7589 46.5899 27.1799 46.5938Z" fill="#3D3D3D"/>
<path d="M53.4299 46.5938H44.6799C44.101 46.5899 43.5468 46.3549 43.1374 45.9396C42.7279 45.5244 42.4963 44.9623 42.4924 44.375C42.4963 43.7877 42.7279 43.2256 43.1374 42.8104C43.5468 42.3951 44.101 42.1601 44.6799 42.1562H53.4299C54.0089 42.1601 54.5631 42.3951 54.9725 42.8104C55.3819 43.2256 55.6136 43.7877 55.6174 44.375C55.6136 44.9623 55.3819 45.5244 54.9725 45.9396C54.5631 46.3549 54.0089 46.5899 53.4299 46.5938Z" fill="#3D3D3D"/>
</g>
<defs>
<clipPath id="clip0_193_20882">
<rect width="70" height="71" fill="white" transform="translate(0.929932)"/>
</clipPath>
</defs>
</svg>
