<svg width="79" height="78" viewBox="0 0 79 78" fill="none" xmlns="http://www.w3.org/2000/svg">
<g clip-path="url(#clip0_193_20875)">
<path d="M70.3 47.645L68.9675 53.69C67.9945 58.8217 65.2195 63.4367 61.1433 66.7025C57.0671 69.9683 51.9579 71.6698 46.7375 71.5H31.274C26.0537 71.6698 20.9445 69.9683 16.8683 66.7025C12.792 63.4367 10.0171 58.8217 9.04403 53.69L7.71153 47.645C7.42765 46.1425 7.66207 44.5881 8.37643 43.2362C9.09079 41.8842 10.2428 40.8147 11.644 40.2025L16.259 38.35L34.1665 31.1675C37.2726 29.911 40.7455 29.911 43.8515 31.1675L61.759 38.35L66.374 40.2025C67.774 40.8158 68.9246 41.8858 69.6378 43.2376C70.3509 44.5895 70.5844 46.1433 70.3 47.645Z" fill="#202223"/>
<path opacity="0.4" d="M61.7591 26V38.35L43.8516 31.1675C40.7414 29.9324 37.2768 29.9324 34.1666 31.1675L16.2591 38.35V26C16.2668 23.4165 17.2965 20.941 19.1233 19.1142C20.9501 17.2874 23.4256 16.2577 26.0091 16.25H52.0091C54.5926 16.2577 57.0681 17.2874 58.8949 19.1142C60.7217 20.941 61.7514 23.4165 61.7591 26Z" fill="#747474"/>
<path d="M47.1341 16.25H30.8841V9.75C30.8841 8.88805 31.2265 8.0614 31.836 7.4519C32.4455 6.84241 33.2721 6.5 34.1341 6.5H43.8841C44.746 6.5 45.5727 6.84241 46.1822 7.4519C46.7917 8.0614 47.1341 8.88805 47.1341 9.75V16.25Z" fill="#202223"/>
</g>
<defs>
<clipPath id="clip0_193_20875">
<rect width="78" height="78" fill="white" transform="translate(0.00909424)"/>
</clipPath>
</defs>
</svg>
