<svg width="80" height="80" viewBox="0 0 80 80" fill="none" xmlns="http://www.w3.org/2000/svg">
<path d="M35.3333 13.8331V19.9997H30.4C29.3046 19.8454 28.1884 19.9476 27.1392 20.2984C26.0901 20.6492 25.1369 21.2389 24.3547 22.0211C23.5725 22.8033 22.9827 23.7566 22.6319 24.8057C22.2812 25.8548 22.1789 26.971 22.3333 28.0664V59.9997H13.8333C12.8598 60.1391 11.8671 60.0498 10.9341 59.7389C10.001 59.428 9.1532 58.9041 8.45777 58.2086C7.76235 57.5132 7.23843 56.6654 6.92754 55.7323C6.61665 54.7993 6.52733 53.8066 6.66666 52.8331V13.8331C6.52733 12.8595 6.61665 11.8669 6.92754 10.9338C7.23843 10.0008 7.76235 9.15296 8.45777 8.45753C9.1532 7.7621 10.001 7.23819 10.9341 6.9273C11.8671 6.61641 12.8598 6.52709 13.8333 6.66641H28.1667C29.1402 6.52709 30.1329 6.61641 31.0659 6.9273C31.999 7.23819 32.8468 7.7621 33.5422 8.45753C34.2376 9.15296 34.7615 10.0008 35.0724 10.9338C35.3833 11.8669 35.4727 12.8595 35.3333 13.8331Z" fill="#3D3D3D"/>
<path opacity="0.4" d="M57.9 28.0667V65.2667C58.0582 66.3599 57.9598 67.4748 57.6126 68.5233C57.2653 69.5718 56.6788 70.5251 55.8994 71.3077C55.12 72.0904 54.1691 72.6808 53.1221 73.0324C52.075 73.384 50.9605 73.487 49.8667 73.3334H30.4C29.3047 73.4878 28.1884 73.3856 27.1393 73.0348C26.0902 72.684 25.1369 72.0942 24.3547 71.312C23.5725 70.5298 22.9828 69.5766 22.632 68.5275C22.2812 67.4784 22.179 66.3621 22.3334 65.2667V28.0667C22.179 26.9714 22.2812 25.8551 22.632 24.806C22.9828 23.7569 23.5725 22.8036 24.3547 22.0214C25.1369 21.2392 26.0902 20.6495 27.1393 20.2987C28.1884 19.9479 29.3047 19.8457 30.4 20.0001H49.8667C50.9605 19.8464 52.075 19.9495 53.1221 20.301C54.1691 20.6526 55.12 21.2431 55.8994 22.0257C56.6788 22.8083 57.2653 23.7616 57.6126 24.8101C57.9598 25.8587 58.0582 26.9736 57.9 28.0667Z" fill="#2D3034"/>
<path d="M73.3333 13.8331V52.8331C73.4727 53.8066 73.3833 54.7993 73.0724 55.7323C72.7615 56.6654 72.2376 57.5132 71.5422 58.2086C70.8468 58.9041 69.999 59.428 69.0659 59.7389C68.1329 60.0498 67.1402 60.1391 66.1667 59.9997H57.9V28.0664C58.0582 26.9733 57.9597 25.8583 57.6125 24.8098C57.2653 23.7613 56.6787 22.808 55.8993 22.0254C55.1199 21.2428 54.1691 20.6523 53.122 20.3007C52.075 19.9491 50.9604 19.8461 49.8667 19.9997H44.6667V13.8331C44.5273 12.8595 44.6167 11.8669 44.9275 10.9338C45.2384 10.0008 45.7623 9.15296 46.4578 8.45753C47.1532 7.7621 48.001 7.23819 48.9341 6.9273C49.8671 6.61641 50.8598 6.52709 51.8333 6.66641H66.1667C67.1402 6.52709 68.1329 6.61641 69.0659 6.9273C69.999 7.23819 70.8468 7.7621 71.5422 8.45753C72.2376 9.15296 72.7615 10.0008 73.0724 10.9338C73.3833 11.8669 73.4727 12.8595 73.3333 13.8331Z" fill="#3D3D3D"/>
<path d="M46.6666 39.1665H33.3333C32.6716 39.1621 32.0383 38.8973 31.5704 38.4294C31.1025 37.9615 30.8377 37.3282 30.8333 36.6665C30.8377 36.0048 31.1025 35.3715 31.5704 34.9036C32.0383 34.4357 32.6716 34.1709 33.3333 34.1665H46.6666C47.3283 34.1709 47.9617 34.4357 48.4296 34.9036C48.8975 35.3715 49.1623 36.0048 49.1666 36.6665C49.1623 37.3282 48.8975 37.9615 48.4296 38.4294C47.9617 38.8973 47.3283 39.1621 46.6666 39.1665Z" fill="#747474"/>
<path d="M46.6666 49.1665H33.3333C32.6716 49.1621 32.0383 48.8973 31.5704 48.4294C31.1025 47.9615 30.8377 47.3282 30.8333 46.6665C30.8377 46.0048 31.1025 45.3715 31.5704 44.9036C32.0383 44.4357 32.6716 44.1709 33.3333 44.1665H46.6666C47.3283 44.1709 47.9617 44.4357 48.4296 44.9036C48.8975 45.3715 49.1623 46.0048 49.1666 46.6665C49.1623 47.3282 48.8975 47.9615 48.4296 48.4294C47.9617 48.8973 47.3283 49.1621 46.6666 49.1665Z" fill="#747474"/>
<path d="M42.5 63.3335V73.3335H37.5V63.3335C37.5044 62.6718 37.7692 62.0385 38.2371 61.5706C38.705 61.1027 39.3383 60.8379 40 60.8335C40.6617 60.8379 41.295 61.1027 41.7629 61.5706C42.2308 62.0385 42.4956 62.6718 42.5 63.3335Z" fill="#747474"/>
</svg>
