<svg width="87" height="88" viewBox="0 0 87 88" fill="none" xmlns="http://www.w3.org/2000/svg">
<path d="M72.6088 25.006L51.765 10.2293C48.7951 8.26615 45.3062 7.2607 41.7593 7.34581C38.2124 7.43092 34.7746 8.60258 31.9 10.706L13.7388 25.0426C11.8146 26.7022 10.2464 28.7423 9.13049 31.0376C8.01461 33.3328 7.37467 35.8347 7.25001 38.3893V63.6893C7.24613 68.181 9.003 72.491 12.1355 75.6746C15.268 78.8583 19.5207 80.6558 23.9613 80.6733H63.0025C67.4379 80.6636 71.6884 78.8746 74.8213 75.6987C77.9543 72.5229 79.7138 68.2197 79.7138 63.7333V38.8733C79.5973 36.1784 78.9013 33.5415 77.6742 31.1465C76.4471 28.7516 74.7185 26.656 72.6088 25.006Z" fill="white" fill-opacity="0.9"/>
<path d="M48.5749 31.2036H38.4249C35.0705 31.2065 31.8543 32.5557 29.4823 34.9549C27.1104 37.3541 25.7766 40.6073 25.7737 44.0003V54.2303C25.7832 57.6212 27.1192 60.8705 29.4897 63.2682C31.8602 65.6659 35.0726 67.0173 38.4249 67.0269H48.5387C51.8931 67.024 55.1093 65.6749 57.4813 63.2757C59.8532 60.8765 61.1871 57.6233 61.1899 54.2303V44.0003C61.189 40.613 59.8608 37.3643 57.4962 34.9657C55.1317 32.5671 51.9237 31.2143 48.5749 31.2036ZM56.1512 44.0003V46.5669H46.0374V36.3369H48.5749C50.5813 36.3466 52.5029 37.1571 53.9216 38.5921C55.3404 40.0272 56.1417 41.9708 56.1512 44.0003ZM38.4249 36.3369H40.9624V46.5669H30.8487V44.0003C30.8582 41.9708 31.6595 40.0272 33.0782 38.5921C34.497 37.1571 36.4185 36.3466 38.4249 36.3369ZM30.8487 54.2303V51.6636H40.9624V61.8936H38.4249C36.4185 61.884 34.497 61.0735 33.0782 59.6384C31.6595 58.2034 30.8582 56.2598 30.8487 54.2303ZM48.5749 61.8936H46.0374V51.6636H56.1512V54.2303C56.1417 56.2598 55.3404 58.2034 53.9216 59.6384C52.5029 61.0735 50.5813 61.884 48.5749 61.8936Z" fill="#9750EF"/>
</svg>
