<svg width="79" height="78" viewBox="0 0 79 78" fill="none" xmlns="http://www.w3.org/2000/svg">
<g clip-path="url(#clip0_195_20890)">
<path opacity="0.4" d="M72.0701 25.3825V45.5H58.8101C57.6392 45.4383 56.5015 45.0886 55.4981 44.482C54.4947 43.8754 53.6564 43.0306 53.0576 42.0225L49.6776 35.62C48.7676 33.8975 47.4676 33.995 46.7526 35.7825L39.2776 54.665C38.4651 56.7775 37.1001 56.7775 36.2551 54.665L32.5501 45.305C32.0223 44.1256 31.1781 43.1155 30.111 42.3868C29.0439 41.6582 27.7957 41.2396 26.5051 41.1775L7.07007 41.275V25.3825C7.07007 13.5525 14.1226 6.5 25.9526 6.5H53.1876C65.0176 6.5 72.0701 13.5525 72.0701 25.3825Z" fill="#747474"/>
<path d="M72.0701 52.6176V45.5001H58.8101C57.6392 45.4384 56.5015 45.0887 55.4981 44.4821C54.4947 43.8755 53.6564 43.0307 53.0576 42.0226L49.6776 35.6201C48.7676 33.8976 47.4676 33.9951 46.7526 35.7826L39.2776 54.6651C38.4651 56.7776 37.1001 56.7776 36.2551 54.6651L32.5501 45.3051C32.0223 44.1257 31.1781 43.1156 30.111 42.387C29.0439 41.6583 27.7957 41.2397 26.5051 41.1776L7.07007 41.2751V52.6176C7.07007 64.2526 13.8951 71.2726 25.3676 71.4676C25.7251 71.5001 26.1151 71.5001 26.4726 71.5001H52.4726C52.9601 71.5001 53.4476 71.5001 53.9026 71.4676C65.3101 71.2076 72.0701 64.2201 72.0701 52.6176Z" fill="#202223"/>
<path d="M7.0701 41.2749V52.0324C7.0051 50.9924 6.9726 49.8874 6.9726 48.7499V41.2749H7.0701Z" fill="#292D32"/>
</g>
<defs>
<clipPath id="clip0_195_20890">
<rect width="78" height="78" fill="white" transform="translate(0.570068)"/>
</clipPath>
</defs>
</svg>
