<svg width="85" height="85" viewBox="0 0 85 85" fill="none" xmlns="http://www.w3.org/2000/svg">
<path d="M63.0091 42.4998V54.2936C63.0118 56.9351 62.0881 59.4918 60.4025 61.5088C58.7169 63.5258 56.3787 64.8721 53.8041 65.3082L42.0091 67.2915L30.2141 65.3082C27.6395 64.8721 25.3013 63.5258 23.6157 61.5088C21.9301 59.4918 21.0064 56.9351 21.0091 54.2936V42.4998C21.0091 37.8033 22.8528 33.2991 26.1347 29.9782C29.4166 26.6572 33.8678 24.7915 38.5091 24.7915H45.5091C50.1504 24.7915 54.6016 26.6572 57.8835 29.9782C61.1653 33.2991 63.0091 37.8033 63.0091 42.4998ZM63.0091 14.1665H21.0091C20.0808 14.1665 19.1906 14.5396 18.5342 15.2038C17.8778 15.868 17.5091 16.7689 17.5091 17.7082C17.5091 18.6475 17.8778 19.5483 18.5342 20.2125C19.1906 20.8767 20.0808 21.2498 21.0091 21.2498H63.0091C63.9373 21.2498 64.8276 20.8767 65.484 20.2125C66.1403 19.5483 66.5091 18.6475 66.5091 17.7082C66.5091 16.7689 66.1403 15.868 65.484 15.2038C64.8276 14.5396 63.9373 14.1665 63.0091 14.1665Z" fill="#202223"/>
<path d="M52.5091 17.7085C52.5091 19.8099 51.8933 21.8642 50.7395 23.6114C49.5858 25.3587 47.9459 26.7205 46.0273 27.5247C44.1087 28.3289 41.9975 28.5393 39.9607 28.1293C37.9239 27.7194 36.0529 26.7074 34.5845 25.2215C33.116 23.7356 32.116 21.8424 31.7109 19.7813C31.3057 17.7203 31.5136 15.5839 32.3084 13.6425C33.1031 11.701 34.4489 10.0416 36.1756 8.87413C37.9023 7.70664 39.9324 7.0835 42.0091 7.0835C44.7939 7.0835 47.4646 8.20291 49.4337 10.1955C51.4029 12.1881 52.5091 14.8906 52.5091 17.7085ZM52.5091 67.2918V60.2085C52.5091 57.3906 51.4029 54.6881 49.4337 52.6955C47.4646 50.7029 44.7939 49.5835 42.0091 49.5835C39.2243 49.5835 36.5536 50.7029 34.5845 52.6955C32.6153 54.6881 31.5091 57.3906 31.5091 60.2085V67.2918C31.5091 70.1098 32.6153 72.8123 34.5845 74.8048C36.5536 76.7974 39.2243 77.9168 42.0091 77.9168C44.7939 77.9168 47.4646 76.7974 49.4337 74.8048C51.4029 72.8123 52.5091 70.1098 52.5091 67.2918Z" fill="#3D3D3D"/>
</svg>
