<svg width="80" height="79" viewBox="0 0 80 79" fill="none" xmlns="http://www.w3.org/2000/svg">
<g clip-path="url(#clip0_195_20896)">
<path opacity="0.4" d="M63.3751 51.7449C62.2303 45.9322 59.1438 40.6811 54.6221 36.8533C50.1005 33.0254 44.412 30.848 38.4901 30.6782C32.1913 30.7847 26.1507 33.1999 21.5149 37.4656C16.8791 41.7312 13.9707 47.5504 13.3417 53.8186C13.1115 56.1928 13.3845 58.5888 14.143 60.8502C14.9016 63.1117 16.1285 65.1877 17.7438 66.9428C19.3591 68.6979 21.3265 70.0926 23.5173 71.0358C25.7082 71.9789 28.0734 72.4495 30.4584 72.4166H45.8601C48.4606 72.4781 51.0425 71.9642 53.4211 70.9114C55.7998 69.8587 57.9163 68.2932 59.6193 66.327C61.2758 64.3202 62.4709 61.9738 63.1199 59.4539C63.7689 56.934 63.8561 54.3022 63.3751 51.7449Z" fill="#202223"/>
<path d="M44.053 16.2281C44.053 18.1356 43.4874 20.0003 42.4276 21.5863C41.3679 23.1724 39.8616 24.4085 38.0993 25.1385C36.3369 25.8685 34.3977 26.0595 32.5269 25.6873C30.656 25.3152 28.9375 24.3966 27.5887 23.0478C26.2399 21.699 25.3213 19.9805 24.9492 18.1096C24.577 16.2388 24.768 14.2996 25.498 12.5373C26.228 10.7749 27.4642 9.26866 29.0502 8.2089C30.6362 7.14914 32.5009 6.5835 34.4084 6.5835C36.9663 6.5835 39.4195 7.59962 41.2282 9.40833C43.0369 11.217 44.053 13.6702 44.053 16.2281Z" fill="#3D3D3D"/>
<path d="M64.3626 21.6918C64.3626 23.2803 63.8915 24.8332 63.009 26.154C62.1265 27.4748 60.8721 28.5042 59.4045 29.1121C57.9369 29.72 56.322 29.8791 54.764 29.5692C53.206 29.2593 51.7749 28.4943 50.6517 27.3711C49.5284 26.2478 48.7635 24.8167 48.4536 23.2587C48.1437 21.7007 48.3027 20.0858 48.9106 18.6182C49.5185 17.1506 50.548 15.8963 51.8688 15.0137C53.1896 14.1312 54.7424 13.6602 56.3309 13.6602C58.4611 13.6602 60.5039 14.5063 62.0102 16.0126C63.5164 17.5188 64.3626 19.5617 64.3626 21.6918Z" fill="#3D3D3D"/>
<path d="M74.6326 36.1424C74.6326 37.4119 74.2562 38.6529 73.5509 39.7084C72.8456 40.764 71.8431 41.5867 70.6702 42.0725C69.4973 42.5584 68.2067 42.6855 66.9616 42.4378C65.7165 42.1901 64.5728 41.5788 63.6751 40.6811C62.7774 39.7834 62.1661 38.6397 61.9184 37.3946C61.6708 36.1495 61.7979 34.8589 62.2837 33.686C62.7695 32.5132 63.5922 31.5107 64.6478 30.8054C65.7033 30.1001 66.9443 29.7236 68.2139 29.7236C69.9162 29.7236 71.5489 30.3999 72.7526 31.6036C73.9563 32.8074 74.6326 34.44 74.6326 36.1424Z" fill="#3D3D3D"/>
<path d="M21.5709 28.1108C21.5709 29.6993 21.0999 31.2521 20.2173 32.5729C19.3348 33.8937 18.0804 34.9232 16.6128 35.5311C15.1452 36.139 13.5303 36.298 11.9723 35.9881C10.4143 35.6782 8.98324 34.9133 7.85999 33.79C6.73674 32.6668 5.9718 31.2357 5.6619 29.6777C5.35199 28.1197 5.51105 26.5048 6.11895 25.0372C6.72684 23.5696 7.75628 22.3152 9.07708 21.4327C10.3979 20.5502 11.9507 20.0791 13.5392 20.0791C15.6694 20.0791 17.7123 20.9253 19.2185 22.4315C20.7247 23.9378 21.5709 25.9806 21.5709 28.1108Z" fill="#3D3D3D"/>
</g>
<defs>
<clipPath id="clip0_195_20896">
<rect width="79" height="79" fill="white" transform="translate(0.570068)"/>
</clipPath>
</defs>
</svg>
