<svg width="73" height="72" viewBox="0 0 73 72" fill="none" xmlns="http://www.w3.org/2000/svg">
<path d="M51.0701 21C51.0701 23.9667 50.1903 26.8668 48.5421 29.3336C46.8939 31.8003 44.5512 33.7229 41.8103 34.8582C39.0694 35.9935 36.0534 36.2906 33.1437 35.7118C30.234 35.133 27.5613 33.7044 25.4635 31.6066C23.3657 29.5088 21.9371 26.8361 21.3583 23.9264C20.7795 21.0166 21.0766 18.0006 22.2119 15.2597C23.3472 12.5189 25.2698 10.1762 27.7365 8.52796C30.2033 6.87973 33.1034 6 36.0701 6C40.0483 6 43.8636 7.58035 46.6767 10.3934C49.4897 13.2064 51.0701 17.0218 51.0701 21Z" fill="#3C3D3E"/>
<path opacity="0.4" d="M36.07 43.5C21.04 43.5 8.80005 53.58 8.80005 66C8.80005 66.3978 8.95808 66.7794 9.23939 67.0607C9.52069 67.342 9.90222 67.5 10.3 67.5H61.84C62.2379 67.5 62.6194 67.342 62.9007 67.0607C63.182 66.7794 63.34 66.3978 63.34 66C63.34 53.58 51.1001 43.5 36.07 43.5Z" fill="#3C3D3E"/>
<path d="M64.3601 44.22C63.9811 43.6905 63.4813 43.259 62.9022 42.9613C62.323 42.6636 61.6813 42.5083 61.0301 42.5083C60.3789 42.5083 59.7372 42.6636 59.158 42.9613C58.5789 43.259 58.0791 43.6905 57.7001 44.22L47.0831 54.84C46.6273 55.3369 46.316 55.949 46.1831 56.61L45.6131 60.66C45.5417 60.9741 45.5511 61.3011 45.6403 61.6105C45.7296 61.92 45.8959 62.2017 46.1236 62.4295C46.3514 62.6572 46.6331 62.8235 46.9426 62.9128C47.252 63.002 47.579 63.0114 47.8931 62.94L51.9431 62.37C52.6064 62.2436 53.2202 61.9315 53.7131 61.47L64.3331 50.85C64.8675 50.479 65.3046 49.9846 65.6074 49.4088C65.9101 48.8329 66.0696 48.1926 66.0722 47.542C66.0749 46.8915 65.9206 46.2498 65.6226 45.6715C65.3245 45.0933 64.8915 44.5953 64.3601 44.22Z" fill="#3D3D3D"/>
</svg>
